<svg width="18" height="18" viewBox="0 0 18 18" fill="none" xmlns="http://www.w3.org/2000/svg">
<mask id="mask0_155_263" style="mask-type:alpha" maskUnits="userSpaceOnUse" x="0" y="0" width="18" height="18">
<rect width="18" height="18" fill="#D9D9D9"/>
</mask>
<g mask="url(#mask0_155_263)">
<path d="M4.90909 14.25C4.34091 14.25 3.85795 14.0586 3.46023 13.6758C3.0625 13.293 2.86364 12.8281 2.86364 12.2812H1.5V5.0625C1.5 4.70156 1.63364 4.39269 1.90091 4.13587C2.16773 3.87862 2.48864 3.75 2.86364 3.75H12.4091V6.375H14.4545L16.5 9V12.2812H15.1364C15.1364 12.8281 14.9375 13.293 14.5398 13.6758C14.142 14.0586 13.6591 14.25 13.0909 14.25C12.5227 14.25 12.0398 14.0586 11.642 13.6758C11.2443 13.293 11.0455 12.8281 11.0455 12.2812H6.95455C6.95455 12.8281 6.75568 13.293 6.35795 13.6758C5.96023 14.0586 5.47727 14.25 4.90909 14.25ZM4.90909 12.9375C5.10227 12.9375 5.26432 12.8745 5.39523 12.7485C5.52568 12.6229 5.59091 12.4672 5.59091 12.2812C5.59091 12.0953 5.52568 11.9396 5.39523 11.814C5.26432 11.688 5.10227 11.625 4.90909 11.625C4.71591 11.625 4.55386 11.688 4.42295 11.814C4.2925 11.9396 4.22727 12.0953 4.22727 12.2812C4.22727 12.4672 4.2925 12.6229 4.42295 12.7485C4.55386 12.8745 4.71591 12.9375 4.90909 12.9375ZM13.0909 12.9375C13.2841 12.9375 13.4459 12.8745 13.5764 12.7485C13.7073 12.6229 13.7727 12.4672 13.7727 12.2812C13.7727 12.0953 13.7073 11.9396 13.5764 11.814C13.4459 11.688 13.2841 11.625 13.0909 11.625C12.8977 11.625 12.7359 11.688 12.6055 11.814C12.4745 11.9396 12.4091 12.0953 12.4091 12.2812C12.4091 12.4672 12.4745 12.6229 12.6055 12.7485C12.7359 12.8745 12.8977 12.9375 13.0909 12.9375ZM12.4091 9.65625H15.3068L13.7727 7.6875H12.4091V9.65625Z" fill="#9C9C9C"/>
</g>
</svg>
